HIERARCHY
ROOT Hips
{
    OFFSET 0.000000 0.000000 0.000000
    CHANNELS 6 Xposition Yposition Zposition Zrotation Xrotation Yrotation
    JOINT Spine
    {
        OFFSET -0.000000 7.236184 0.000000
        CHANNELS 3 Zrotation Xrotation Yrotation
        JOINT Spine1
        {
            OFFSET -0.000000 20.420147 0.000000
            CHANNELS 3 Zrotation Xrotation Yrotation
            JOINT Neck
            {
                OFFSET -0.000000 20.336288 1.848754
                CHANNELS 3 Zrotation Xrotation Yrotation
                JOINT Head
                {
                    OFFSET -0.000000 12.354461 -1.764923
                    CHANNELS 3 Zrotation Xrotation Yrotation
                    End Site
                    {
                        OFFSET -0.000000 22.061537 0.000000
                    }
                }
            }
            JOINT LeftShoulder
            {
                OFFSET 3.573296 18.396038 -0.314103
                CHANNELS 3 Zrotation Xrotation Yrotation
                JOINT LeftArm
                {
                    OFFSET 10.880760 0.000000 0.000000
                    CHANNELS 3 Zrotation Xrotation Yrotation
                    JOINT LeftForeArm
                    {
                        OFFSET 27.185530 0.000000 0.000000
                        CHANNELS 3 Zrotation Xrotation Yrotation
                        JOINT LeftHand
                        {
                            OFFSET 27.825975 0.000000 0.000000
                            CHANNELS 3 Zrotation Xrotation Yrotation
                            End Site
                            {
                                OFFSET 13.236923 0.000000 0.000000
                            }
                        }
                    }
                }
            }
            JOINT RightShoulder
            {
                OFFSET -3.474926 18.396038 -0.314103
                CHANNELS 3 Zrotation Xrotation Yrotation
                JOINT RightArm
                {
                    OFFSET -10.880760 0.000000 0.000000
                    CHANNELS 3 Zrotation Xrotation Yrotation
                    JOINT RightForeArm
                    {
                        OFFSET -27.185530 0.000000 0.000000
                        CHANNELS 3 Zrotation Xrotation Yrotation
                        JOINT RightHand
                        {
                            OFFSET -27.825975 0.000000 0.000000
                            CHANNELS 3 Zrotation Xrotation Yrotation
                            End Site
                            {
                                OFFSET -13.236923 0.000000 0.000000
                            }
                        }
                    }
                }
            }
        }
    }
    JOINT LeftUpLeg
    {
        OFFSET 8.824615 0.000000 0.000000
        CHANNELS 3 Zrotation Xrotation Yrotation
        JOINT LeftLeg
        {
            OFFSET -0.000000 -35.111282 0.000000
            CHANNELS 3 Zrotation Xrotation Yrotation
            JOINT LeftFoot
            {
                OFFSET -0.000000 -42.324711 0.000000
                CHANNELS 3 Zrotation Xrotation Yrotation
                JOINT LeftToeBase
                {
                    OFFSET -0.000000 -5.735999 13.236923
                    CHANNELS 3 Zrotation Xrotation Yrotation
                    End Site
                    {
                        OFFSET -0.000000 0.000000 3.529846
                    }
                }
            }
        }
    }
    JOINT RightUpLeg
    {
        OFFSET -8.824615 0.000000 0.000000
        CHANNELS 3 Zrotation Xrotation Yrotation
        JOINT RightLeg
        {
            OFFSET -0.000000 -35.111282 0.000000
            CHANNELS 3 Zrotation Xrotation Yrotation
            JOINT RightFoot
            {
                OFFSET -0.000000 -42.324711 0.000000
                CHANNELS 3 Zrotation Xrotation Yrotation
                JOINT RightToeBase
                {
                    OFFSET -0.000000 -5.735999 13.236923
                    CHANNELS 3 Zrotation Xrotation Yrotation
                    End Site
                    {
                        OFFSET -0.000000 0.000000 3.529846
                    }
                }
            }
        }
    }
}
MOTION
Frames:    7
Frame Time:    0.008333
2.945455    83.404640    94.838470    -0.981841    -9.601352    -174.153427    -2.606179    -18.897562    -0.468066    1.260429    8.605760    -0.131180    1.415077    7.257411    -0.185098    -1.191670    -9.027645    -0.572095    -3.807103    20.841270    2.702044    -45.591629    41.326839    -39.443989    3.439994    -2.906812    -17.625994    18.940279    -2.041538    1.993787    7.168087    20.228127    -6.454387    42.469337    48.364117    32.649128    -1.891919    -13.236925    21.111908    -20.828894    -11.905716    -5.498281    5.875690    -12.801776    3.040492    -1.196899    10.102524    15.000164    -7.170633    -3.531727    -10.335311    -0.881191    0.049808    0.976678    -3.749277    -5.375400    5.356009    3.751820    4.810856    -0.727752    -4.278600    -7.127864    -14.608775    -2.107316    0.923022    2.276326    
3.022955    83.398926    94.861008    -0.921727    -9.639910    -174.006393    -2.620123    -18.833374    -0.468878    1.271315    8.607741    -0.130571    1.370182    7.195124    -0.170741    -1.203922    -9.097374    -0.557721    -3.793131    20.784836    2.688778    -45.806137    41.164310    -39.151649    3.442869    -3.170052    -17.684662    18.871338    -2.307440    1.972595    7.178263    20.248018    -6.437582    42.538174    48.281990    32.574314    -1.622937    -13.606976    21.187271    -20.630537    -12.305063    -5.667530    5.972683    -13.098892    3.063597    -1.196808    10.447441    14.962831    -7.163243    -3.571213    -10.413350    -0.886324    0.021329    0.982418    -3.649220    -5.412180    5.220369    3.743167    4.803543    -0.729160    -4.319784    -7.122947    -14.610434    -2.109496    0.925844    2.278672    
3.099504    83.393166    94.883385    -0.862010    -9.677915    -173.859314    -2.634106    -18.769476    -0.469693    1.282659    8.609697    -0.130136    1.325417    7.134466    -0.157170    -1.216801    -9.167000    -0.543822    -3.779420    20.729395    2.675573    -46.016628    41.001740    -38.863304    3.444264    -3.432529    -17.742483    18.806067    -2.572350    1.954039    7.188086    20.267269    -6.420372    42.605621    48.198570    32.501083    -1.354952    -13.977541    21.256411    -20.439117    -12.706035    -5.833127    6.067452    -13.395272    3.086334    -1.195494    10.791327    14.925842    -7.154685    -3.610202    -10.490603    -0.891375    -0.007143    0.988067    -3.550637    -5.448560    5.085955    3.735042    4.795945    -0.731606    -4.360750    -7.118154    -14.612423    -2.111729    0.928783    2.281075    
3.175418    83.387222    94.905807    -0.802440    -9.715737    -173.709732    -2.649397    -18.705362    -0.469240    1.295938    8.611691    -0.131454    1.279713    7.074759    -0.144218    -1.230421    -9.236318    -0.531122    -3.765997    20.675306    2.662678    -46.224834    40.838833    -38.576954    3.443354    -3.696191    -17.798906    18.750393    -2.838159    1.938573    7.197408    20.285620    -6.402402    42.671658    48.111111    32.429672    -1.085155    -14.353477    21.314938    -20.257053    -13.112546    -6.002293    6.160143    -13.694965    3.107859    -1.193593    11.139194    14.890241    -7.143452    -3.649115    -10.567970    -0.896387    -0.036537    0.993675    -3.453339    -5.484596    4.951177    3.727530    4.787810    -0.736582    -4.401238    -7.113683    -14.614209    -2.114066    0.931482    2.283592    
3.249729    83.381096    94.928162    -0.743391    -9.753163    -173.557877    -2.666291    -18.641678    -0.470503    1.311282    8.613858    -0.131652    1.233193    7.015948    -0.132809    -1.244737    -9.303206    -0.519605    -3.752842    20.622925    2.650110    -46.430164    40.678158    -38.294163    3.439635    -3.958323    -17.852087    18.709860    -3.102113    1.926764    7.206410    20.302254    -6.383389    42.734886    48.018902    32.361263    -0.816120    -14.732685    21.358332    -20.089903    -13.521014    -6.178717    6.249732    -13.996909    3.127245    -1.191665    11.489972    14.857381    -7.128351    -3.687728    -10.644594    -0.901233    -0.067165    0.999102    -3.358512    -5.519867    4.817351    3.721088    4.778999    -0.745073    -4.440557    -7.109737    -14.616003    -2.116437    0.933732    2.286145    
3.322286    83.374702    94.950470    -0.684686    -9.790213    -173.402542    -2.685055    -18.578182    -0.470528    1.329420    8.616123    -0.133650    1.185376    6.957877    -0.123039    -1.259467    -9.367373    -0.509868    -3.739691    20.572674    2.638499    -46.633545    40.520401    -38.014462    3.432518    -4.219215    -17.901524    18.688257    -3.364404    1.919561    7.215044    20.316778    -6.363069    42.794788    47.921005    32.296585    -0.547983    -15.116596    21.383978    -19.940950    -13.931717    -6.367332    6.336162    -14.302843    3.143455    -1.190512    11.846003    14.828935    -7.107962    -3.726135    -10.720671    -0.905829    -0.099473    1.004256    -3.266213    -5.554074    4.683932    3.715761    4.769269    -0.758198    -4.478690    -7.106454    -14.617478    -2.118952    0.935928    2.288856    
3.393327    83.367966    94.972954    -0.625847    -9.827435    -173.241730    -2.706081    -18.514635    -0.472428    1.350388    8.618711    -0.134040    1.135335    6.899275    -0.115251    -1.274459    -9.427820    -0.502209    -3.726920    20.524126    2.628163    -46.837395    40.365284    -37.734726    3.421332    -4.481044    -17.947025    18.688456    -3.627169    1.917824    7.223660    20.328999    -6.341152    42.850742    47.816200    32.236340    -0.279731    -15.508612    21.390259    -19.812719    -14.346990    -6.573852    6.419648    -14.616729    3.155786    -1.190789    12.211842    14.806920    -7.080726    -3.764592    -10.797095    -0.910266    -0.134405    1.009239    -3.175907    -5.587664    4.549049    3.711308    4.758511    -0.777490    -4.515317    -7.104006    -14.617284    -2.121564    0.937454    2.291673    
